<?xml version="1.0" encoding="UTF-8" standalone="no"?>
<!-- Created with Inkscape (http://www.inkscape.org/) -->

<svg
   xmlns:dc="http://purl.org/dc/elements/1.1/"
   xmlns:cc="http://creativecommons.org/ns#"
   xmlns:rdf="http://www.w3.org/1999/02/22-rdf-syntax-ns#"
   xmlns:svg="http://www.w3.org/2000/svg"
   xmlns="http://www.w3.org/2000/svg"
   xmlns:sodipodi="http://sodipodi.sourceforge.net/DTD/sodipodi-0.dtd"
   xmlns:inkscape="http://www.inkscape.org/namespaces/inkscape"
   width="500"
   height="500"
   id="svg2985"
   version="1.1"
   inkscape:version="0.48.2 r9819"
   sodipodi:docname="Documento nuevo 2">
  <defs
     id="defs2987" />
  <sodipodi:namedview
     id="base"
     pagecolor="#ffffff"
     bordercolor="#666666"
     borderopacity="1.0"
     inkscape:pageopacity="0.0"
     inkscape:pageshadow="2"
     inkscape:zoom="0.98994949"
     inkscape:cx="-79.091313"
     inkscape:cy="297.48081"
     inkscape:document-units="px"
     inkscape:current-layer="layer2"
     showgrid="false"
     inkscape:window-width="1920"
     inkscape:window-height="1032"
     inkscape:window-x="0"
     inkscape:window-y="22"
     inkscape:window-maximized="1" />
  <metadata
     id="metadata2990">
    <rdf:RDF>
      <cc:Work
         rdf:about="">
        <dc:format>image/svg+xml</dc:format>
        <dc:type
           rdf:resource="http://purl.org/dc/dcmitype/StillImage" />
        <dc:title></dc:title>
      </cc:Work>
    </rdf:RDF>
  </metadata>
  <g
     inkscape:groupmode="layer"
     id="layer2"
     inkscape:label="Capa">
    <g
       id="g3779"
       transform="matrix(0.90151174,0,0,0.90151174,525.47707,119.97289)">
      <path
         sodipodi:nodetypes="ccssccc"
         inkscape:connector-curvature="0"
         id="path3005"
         d="m -46.385241,-36.637782 c 1.228861,17.453212 -0.211492,20.33305 -9.379228,41.2946199 -15.240392,25.0853491 -47.627891,48.0800191 -79.737101,69.6594681 -27.74073,18.643553 -91.38076,50.168824 -160.06197,56.384964 -66.19605,5.99122 -148.83894,8.47457 -211.75789,-6.05841 -59.90862,-16.69556 -78.60445,-83.974771 -30.48123,-113.347991 7.81948,-13.543749 488.93849,-111.421589 491.417419,-47.932651 z"
         style="fill:#00a0d0;fill-opacity:1;stroke:none" />
      <path
         sodipodi:nodetypes="ccccc"
         inkscape:connector-curvature="0"
         id="path3775"
         d="m -452.5,149.28571 c 26.1128,2.97426 71.3271,6.21803 89.28571,2.5 2.95862,69.49626 10.43035,133.64393 -7.5,141.42858 -17.61398,6.31039 -50.87958,4.45279 -86.42857,-16.07143 -19.13552,-15.07691 -1.11279,-86.18856 4.64286,-127.85715 z"
         style="fill:#00a0d0;fill-opacity:1;stroke:none" />
      <path
         sodipodi:nodetypes="cccccc"
         inkscape:connector-curvature="0"
         id="path3777"
         d="m -249.28572,142.14286 c 52.80335,-12.26492 62.28562,-18.14334 103.92858,-40 10.92868,35.64334 43.04543,169.2536 36.78571,195.35714 -26.41567,43.57829 -49.91402,52.73792 -72.14286,47.5 -14.37169,0.11923 -81.13112,-23.35885 -86.07142,-33.57143 -7.08316,-3.78401 11.83951,-127.0208 17.49999,-169.28571 z"
         style="fill:#00a0d0;fill-opacity:1;stroke:none" />
    </g>
  </g>
</svg>
